<svg width="48" height="48" viewBox="0 0 48 48" fill="none" xmlns="http://www.w3.org/2000/svg">
<g filter="url(#filter0_ddi_199_2950)">
<path d="M44 7.66634L34.8 0L32.22 3.03873L41.42 10.7051L44 7.66634ZM15.76 3.03873L13.2 0L4 7.64647L6.58 10.6852L15.76 3.03873ZM24 4.25025C14.06 4.25025 6 12.2542 6 22.1251C6 31.996 14.04 40 24 40C33.94 40 42 31.996 42 22.1251C42 12.2542 33.94 4.25025 24 4.25025ZM24 36.0278C16.26 36.0278 10 29.8113 10 22.1251C10 14.4389 16.26 8.22244 24 8.22244C31.74 8.22244 38 14.4389 38 22.1251C38 29.8113 31.74 36.0278 24 36.0278ZM21.08 25.1639L16.82 20.9335L14.7 23.0387L21.06 29.3545L33.06 17.4379L30.94 15.3327L21.08 25.1639Z" fill="#D84315"/>
</g>
<defs>
<filter id="filter0_ddi_199_2950" x="0" y="0" width="48" height="48" filterUnits="userSpaceOnUse" color-interpolation-filters="sRGB">
<feFlood flood-opacity="0" result="BackgroundImageFix"/>
<feColorMatrix in="SourceAlpha" type="matrix" values="0 0 0 0 0 0 0 0 0 0 0 0 0 0 0 0 0 0 127 0" result="hardAlpha"/>
<feOffset dy="4"/>
<feGaussianBlur stdDeviation="2"/>
<feComposite in2="hardAlpha" operator="out"/>
<feColorMatrix type="matrix" values="0 0 0 0 0 0 0 0 0 0 0 0 0 0 0 0 0 0 0.25 0"/>
<feBlend mode="normal" in2="BackgroundImageFix" result="effect1_dropShadow_199_2950"/>
<feColorMatrix in="SourceAlpha" type="matrix" values="0 0 0 0 0 0 0 0 0 0 0 0 0 0 0 0 0 0 127 0" result="hardAlpha"/>
<feOffset dy="4"/>
<feGaussianBlur stdDeviation="2"/>
<feComposite in2="hardAlpha" operator="out"/>
<feColorMatrix type="matrix" values="0 0 0 0 0 0 0 0 0 0 0 0 0 0 0 0 0 0 0.25 0"/>
<feBlend mode="normal" in2="effect1_dropShadow_199_2950" result="effect2_dropShadow_199_2950"/>
<feBlend mode="normal" in="SourceGraphic" in2="effect2_dropShadow_199_2950" result="shape"/>
<feColorMatrix in="SourceAlpha" type="matrix" values="0 0 0 0 0 0 0 0 0 0 0 0 0 0 0 0 0 0 127 0" result="hardAlpha"/>
<feOffset dy="4"/>
<feGaussianBlur stdDeviation="2"/>
<feComposite in2="hardAlpha" operator="arithmetic" k2="-1" k3="1"/>
<feColorMatrix type="matrix" values="0 0 0 0 0 0 0 0 0 0 0 0 0 0 0 0 0 0 0.25 0"/>
<feBlend mode="normal" in2="shape" result="effect3_innerShadow_199_2950"/>
</filter>
</defs>
</svg>
